<svg width="1" height="1" viewBox="0 0 1 1" fill="none" xmlns="http://www.w3.org/2000/svg">
<path d="M0.0976292 0.462056C0.0799046 0.462001 0.0625219 0.457133 0.0473448 0.447978C0.0321677 0.438823 0.0197596 0.42572 0.011444 0.410067C0.00312833 0.394414 -0.000780291 0.3768 0.000129076 0.359099C0.00103844 0.341397 0.00673832 0.324274 0.0166142 0.309556C0.249654 -0.0349999 0.881572 -0.000210846 0.908259 0.00193369C0.934138 0.0035136 0.958334 0.0153095 0.975516 0.0347258C0.992698 0.0541421 1.00146 0.0795869 0.999884 0.105466C0.998304 0.131345 0.986504 0.155537 0.967088 0.172719C0.947672 0.189901 0.922227 0.198667 0.896348 0.197087C0.744324 0.188032 0.319945 0.209954 0.178644 0.418927C0.169676 0.432172 0.157605 0.443025 0.143485 0.450541C0.129365 0.458058 0.113625 0.462012 0.0976292 0.462056Z" fill="#FF8A8A"/>
</svg>
