<svg width="5" height="2" viewBox="0 0 5 2" fill="none" xmlns="http://www.w3.org/2000/svg">
<path d="M2.17983 1.44463C2.0144 1.44458 1.84911 1.43504 1.68477 1.41606C1.1332 1.35518 0.597204 1.19496 0.102692 0.943172C0.0563068 0.917288 0.0221015 0.874039 0.00760459 0.822937C-0.00689231 0.771835 -0.000498687 0.717067 0.0253852 0.670682C0.051269 0.624296 0.0945178 0.590091 0.14562 0.575594C0.196722 0.561097 0.251494 0.567495 0.297879 0.593379C0.394273 0.646782 2.68475 1.88415 4.66763 0.0497308C4.70685 0.0153181 4.75796 -0.00242869 4.81006 0.000267856C4.86217 0.0029644 4.91117 0.0258931 4.94663 0.0641704C4.98209 0.102448 5.0012 0.153052 4.99991 0.205213C4.99862 0.257374 4.97703 0.306974 4.93973 0.343453C4.19666 1.05342 3.20754 1.44807 2.17983 1.44463Z" fill="#FF8A8A"/>
</svg>
