<svg width="31" height="10" viewBox="0 0 31 10" fill="none" xmlns="http://www.w3.org/2000/svg">
<path d="M31 9.54243H0C0 9.54243 0.311359 5.67467 2.18311 4.92678C2.57015 4.77178 3.21411 4.46969 3.99182 4.08852C4.09937 4.03542 4.21008 3.98119 4.32237 3.92538H4.32463C4.52317 3.82702 4.7281 3.72474 4.93944 3.61855C6.44718 2.86253 8.22042 1.94202 9.60118 1.21899L10.0669 0.975191C11.1613 0.399929 11.9135 0 11.9135 0L12.1503 0.0530977C14.3539 0.546726 16.6413 0.528561 18.8368 0C18.8368 0 19.617 0.401736 20.7492 0.97858C20.7637 0.986262 20.7777 0.993264 20.7923 1.00117C21.4756 1.34981 22.2836 1.76036 23.1255 2.18355C25.3865 3.3221 27.8814 4.55397 28.8171 4.92836C30.6893 5.67466 31 9.54243 31 9.54243Z" fill="#0075CF"/>
</svg>
