<svg width="1" height="1" viewBox="0 0 1 1" fill="none" xmlns="http://www.w3.org/2000/svg">
<path d="M0.902436 0.462056C0.920161 0.462001 0.937544 0.457133 0.952721 0.447978C0.967898 0.438823 0.980306 0.42572 0.988622 0.410067C0.996937 0.394414 1.00085 0.3768 0.999937 0.359099C0.999027 0.341397 0.993327 0.324274 0.983451 0.309556C0.750412 -0.0349999 0.118494 -0.000210846 0.0918064 0.00193369C0.0659275 0.0035136 0.0417316 0.0153095 0.0245496 0.0347258C0.00736762 0.0541421 -0.00139809 0.0795869 0.000181822 0.105466C0.00176173 0.131345 0.0135613 0.155537 0.0329776 0.172719C0.0523939 0.189901 0.0778387 0.198667 0.103718 0.197087C0.255742 0.188032 0.68012 0.209954 0.821421 0.418927C0.83039 0.432172 0.842461 0.443025 0.856581 0.450541C0.8707 0.458058 0.886441 0.462012 0.902436 0.462056Z" fill="#FF8A8A"/>
</svg>
