<svg width="32" height="33" viewBox="0 0 32 33" fill="none" xmlns="http://www.w3.org/2000/svg">
<path d="M9.05511 28.2865C9.05511 28.2865 3.77551 29.3482 3.55237 24.9024C3.45588 22.9783 3.1964 23.2792 1.51392 21.6566C-0.168554 20.034 -0.168554 19.3732 0.192259 17.8709C0.553073 16.3686 2.06792 15.8525 1.3192 14.4643C0.332796 12.636 0.635236 9.51052 2.77853 8.29216C4.85046 7.11434 5.08374 7.1302 5.08374 5.92242C5.08374 4.34502 6.7215 1.80324 10.1005 2.06757C13.0082 2.29468 12.5555 0.880501 14.6162 0.250509C18.453 -0.922907 20.3121 2.40019 21.634 2.52046C22.9559 2.64074 25.2435 2.66298 26.4046 4.41991C27.8445 6.59889 26.5724 8.37719 28.3752 8.55738C30.1779 8.73756 31.9807 10.3 31.9205 11.9225C31.8604 13.5451 30.8989 14.9269 31.5599 15.6481C32.221 16.3693 32.4772 20.6398 29.8098 21.4572C26.1647 22.574 29.8098 27.9702 23.1059 27.8702C17.0789 27.7799 9.05511 28.2865 9.05511 28.2865Z" fill="#3F2037"/>
<path d="M30.7361 32.4376H0.514038C0.514038 32.4376 0.817584 28.6669 2.64236 27.9378C3.01969 27.7867 3.64748 27.4922 4.40568 27.1206C4.51053 27.0688 4.61846 27.0159 4.72794 26.9615H4.73014C4.92369 26.8656 5.12349 26.7659 5.32952 26.6624C6.79943 25.9253 8.52816 25.0279 9.87427 24.323L10.3283 24.0854C11.3953 23.5245 12.1286 23.1346 12.1286 23.1346L12.3594 23.1864C14.5077 23.6676 16.7377 23.6499 18.8781 23.1346C18.8781 23.1346 19.6387 23.5263 20.7425 24.0887C20.7566 24.0962 20.7703 24.103 20.7846 24.1107C21.4507 24.4506 22.2384 24.8508 23.0592 25.2634C25.2635 26.3734 27.6958 27.5743 28.608 27.9393C30.4332 28.6669 30.7361 32.4376 30.7361 32.4376Z" fill="#0075CF"/>
<path d="M15.9247 30.4252C15.2761 30.4257 14.6301 30.3438 14.0021 30.1815C13.2515 29.9995 12.5383 29.688 11.8947 29.261C11.8764 29.2485 11.8607 29.2325 11.8487 29.2139C11.8367 29.1952 11.8286 29.1744 11.8248 29.1525C11.821 29.1307 11.8217 29.1083 11.8267 29.0867C11.8318 29.0651 11.8412 29.0447 11.8543 29.0268C11.8673 29.0089 11.8839 28.9939 11.9029 28.9825C11.922 28.9711 11.9431 28.9637 11.9651 28.9607C11.9871 28.9577 12.0094 28.9591 12.0308 28.9649C12.0522 28.9707 12.0722 28.9808 12.0897 28.9945C12.7051 29.3969 13.3847 29.6915 14.0993 29.8654C15.7821 30.2859 17.5578 30.1211 19.1346 29.3982C19.1546 29.3883 19.1764 29.3826 19.1987 29.3814C19.2211 29.3802 19.2434 29.3835 19.2644 29.3912C19.2853 29.3989 19.3046 29.4107 19.3208 29.426C19.3371 29.4413 19.3501 29.4598 19.3591 29.4802C19.368 29.5007 19.3727 29.5228 19.3729 29.5451C19.3731 29.5675 19.3687 29.5896 19.3601 29.6102C19.3514 29.6308 19.3387 29.6495 19.3227 29.665C19.3066 29.6806 19.2876 29.6927 19.2667 29.7007C18.2155 30.1729 17.0771 30.4197 15.9247 30.4252Z" fill="#0056A8"/>
<path d="M20.7433 24.0875C20.3869 25.6374 19.2377 28.5323 15.6251 28.5323C11.7796 28.5323 10.6429 25.4442 10.3284 24.084C11.3954 23.5232 12.1287 23.1333 12.1287 23.1333L12.3595 23.1851C14.5078 23.6663 16.7378 23.6486 18.8782 23.1333C18.8782 23.1333 19.6395 23.5252 20.7433 24.0875Z" fill="#FFB8A1"/>
<path d="M6.59016 32.4376H0.514038C0.514038 32.4376 0.817584 28.6669 2.64236 27.9378C3.01969 27.7866 3.64748 27.4921 4.40568 27.1205C4.51053 27.0688 4.61846 27.0159 4.72794 26.9615H4.73014C4.92369 26.8656 5.12349 26.7659 5.32952 26.6624C5.78417 27.9285 6.5373 30.3269 6.59016 32.4376Z" fill="#FFB8A1"/>
<path d="M24.6615 32.4376H30.7361C30.7361 32.4376 30.4325 28.6669 28.608 27.9378C28.2304 27.7866 27.6029 27.4921 26.8447 27.1205C26.7395 27.0687 26.632 27.0157 26.5222 26.9615H26.52C26.3264 26.8656 26.1266 26.7659 25.9206 26.6624C25.4673 27.9285 24.7141 30.3269 24.6615 32.4376Z" fill="#FFB8A1"/>
<path d="M19.033 23.9032C19.033 23.9032 18.4402 25.7663 15.7167 25.7663C12.5401 25.7663 11.7925 24.0726 11.7925 24.0726C12.0416 23.4172 12.2404 22.7437 12.3872 22.058C12.5696 21.2324 12.6549 20.3883 12.6414 19.5428L18.2221 19.3226C18.2737 19.7951 18.3576 20.3515 18.4526 20.9112C18.7043 22.3968 19.033 23.9032 19.033 23.9032Z" fill="#FFB8A1"/>
<path d="M18.4522 20.9108C17.5874 21.5121 15.6972 22.4073 12.3868 22.0584C12.5692 21.2328 12.6545 20.3887 12.641 19.5433L18.2218 19.323C18.2733 19.7942 18.3566 20.3506 18.4522 20.9108Z" fill="#3F2037"/>
<path d="M21.4361 12.5823C21.4361 12.5823 22.7434 10.8029 23.7604 11.8554C24.7775 12.9079 22.8161 16.5766 21.0365 15.7776L21.4361 12.5823Z" fill="#FFB8A1"/>
<path d="M20.8957 15.7424C20.3589 16.002 19.9327 16.445 19.6939 16.9914C19.4552 17.5377 19.4197 18.1515 19.5938 18.7218C19.768 19.292 20.1403 19.7812 20.6436 20.101C21.1468 20.4208 21.7479 20.5501 22.3381 20.4655C22.9283 20.3809 23.4689 20.0881 23.8621 19.6399C24.2553 19.1916 24.4753 18.6176 24.4823 18.0213C24.4894 17.4251 24.283 16.846 23.9004 16.3887C23.5178 15.9313 22.9843 15.6258 22.3963 15.5274C22.2828 15.5081 22.1681 15.4969 22.0531 15.4939C22.0613 15.3978 22.0813 15.303 22.1125 15.2117C22.302 15.2202 22.4901 15.2483 22.6738 15.2957C23.3148 15.4597 23.8763 15.8468 24.2577 16.3874C24.6391 16.928 24.8154 17.5869 24.7549 18.2457C24.6945 18.9046 24.4013 19.5203 23.9279 19.9826C23.4545 20.4448 22.8319 20.7232 22.1718 20.7679C21.5117 20.8126 20.8573 20.6207 20.3259 20.2265C19.7945 19.8323 19.421 19.2617 19.2723 18.617C19.1235 17.9723 19.2094 17.2957 19.5144 16.7086C19.8195 16.1215 20.3237 15.6622 20.9367 15.4133L20.8957 15.7424Z" fill="#FFF7F1"/>
<path d="M21.9621 14.6853C21.9579 14.6856 21.9537 14.6856 21.9495 14.6853C21.9258 14.682 21.9044 14.6695 21.8899 14.6504C21.8755 14.6313 21.8692 14.6072 21.8724 14.5835C22.0123 13.7499 22.4508 12.9956 23.106 12.4616C23.1251 12.447 23.1492 12.4406 23.173 12.4437C23.1968 12.4469 23.2184 12.4594 23.233 12.4784C23.2476 12.4975 23.254 12.5216 23.2508 12.5454C23.2477 12.5692 23.2352 12.5908 23.2161 12.6054C22.6026 13.1137 22.1898 13.8236 22.0515 14.6082C22.0484 14.6297 22.0376 14.6493 22.0212 14.6634C22.0048 14.6776 21.9838 14.6854 21.9621 14.6853Z" fill="#FF8A8A"/>
<path d="M22.2359 13.7973C22.2195 13.7973 22.2034 13.7928 22.1894 13.7843C22.1754 13.7758 22.1639 13.7637 22.1562 13.7493C22.1485 13.7348 22.1449 13.7185 22.1457 13.7021C22.1466 13.6858 22.1519 13.6699 22.161 13.6563C22.3764 13.3378 22.9606 13.37 22.9853 13.372C23.0092 13.3734 23.0316 13.3843 23.0474 13.4023C23.0633 13.4202 23.0714 13.4438 23.07 13.4677C23.0685 13.4916 23.0576 13.514 23.0396 13.5298C23.0217 13.5457 22.9982 13.5538 22.9742 13.5524C22.8337 13.544 22.4414 13.5643 22.3108 13.7575C22.3025 13.7697 22.2913 13.7797 22.2783 13.7867C22.2652 13.7936 22.2507 13.7973 22.2359 13.7973Z" fill="#FF8A8A"/>
<path d="M10.0961 12.5823C10.0961 12.5823 8.78876 10.8029 7.77174 11.8554C6.75472 12.9079 8.71607 16.5766 10.4957 15.7776L10.0961 12.5823Z" fill="#FFB8A1"/>
<path d="M10.4506 15.4133C11.0635 15.6623 11.5677 16.1215 11.8726 16.7085C12.1776 17.2956 12.2634 17.9721 12.1147 18.6167C11.966 19.2614 11.5925 19.8319 11.0612 20.226C10.5298 20.6202 9.87547 20.8121 9.21543 20.7674C8.55539 20.7227 7.93286 20.4444 7.45951 19.9822C6.98616 19.52 6.69296 18.9043 6.6325 18.2456C6.57204 17.5868 6.74827 16.928 7.12959 16.3874C7.51092 15.8468 8.07238 15.4597 8.71326 15.2957C8.89701 15.2483 9.08519 15.2202 9.27475 15.2117C9.306 15.303 9.32597 15.3978 9.33422 15.4939C9.2191 15.4969 9.10434 15.5081 8.99081 15.5274C8.40273 15.6258 7.86923 15.9313 7.48666 16.3887C7.1041 16.846 6.89769 17.4251 6.90471 18.0213C6.91173 18.6176 7.13173 19.1916 7.52495 19.6399C7.91818 20.0881 8.45872 20.3809 9.04896 20.4655C9.6392 20.5501 10.2402 20.4208 10.7435 20.101C11.2467 19.7812 11.6191 19.292 11.7932 18.7218C11.9674 18.1515 11.9319 17.5377 11.6931 16.9914C11.4544 16.445 11.0281 16.002 10.4913 15.7424L10.4506 15.4133Z" fill="#FFF7F1"/>
<path d="M10.4506 15.4133C11.0635 15.6623 11.5677 16.1215 11.8726 16.7085C12.1776 17.2956 12.2634 17.9721 12.1147 18.6167C11.966 19.2614 11.5925 19.8319 11.0612 20.226C10.5298 20.6202 9.87547 20.8121 9.21543 20.7674C8.55539 20.7227 7.93286 20.4444 7.45951 19.9822C6.98616 19.52 6.69296 18.9043 6.6325 18.2456C6.57204 17.5868 6.74827 16.928 7.12959 16.3874C7.51092 15.8468 8.07238 15.4597 8.71326 15.2957C8.89701 15.2483 9.08519 15.2202 9.27475 15.2117C9.306 15.303 9.32597 15.3978 9.33422 15.4939C9.2191 15.4969 9.10434 15.5081 8.99081 15.5274C8.40273 15.6258 7.86923 15.9313 7.48666 16.3887C7.1041 16.846 6.89769 17.4251 6.90471 18.0213C6.91173 18.6176 7.13173 19.1916 7.52495 19.6399C7.91818 20.0881 8.45872 20.3809 9.04896 20.4655C9.6392 20.5501 10.2402 20.4208 10.7435 20.101C11.2467 19.7812 11.6191 19.292 11.7932 18.7218C11.9674 18.1515 11.9319 17.5377 11.6931 16.9914C11.4544 16.445 11.0281 16.002 10.4913 15.7424L10.4506 15.4133Z" fill="#FFF7F1"/>
<path d="M9.57056 14.6853C9.57474 14.6856 9.57894 14.6856 9.58311 14.6853C9.60683 14.682 9.62827 14.6695 9.64273 14.6504C9.65718 14.6313 9.66347 14.6072 9.66021 14.5835C9.52035 13.7499 9.08188 12.9956 8.42666 12.4616C8.40758 12.447 8.38349 12.4406 8.35967 12.4437C8.33586 12.4469 8.31427 12.4594 8.29967 12.4784C8.28506 12.4975 8.27863 12.5216 8.28179 12.5454C8.28495 12.5692 8.29745 12.5908 8.31652 12.6054C8.93003 13.1137 9.34282 13.8236 9.48112 14.6082C9.48425 14.6297 9.49502 14.6493 9.51145 14.6634C9.52788 14.6776 9.54887 14.6854 9.57056 14.6853Z" fill="#FF8A8A"/>
<path d="M9.29677 13.7973C9.31316 13.7973 9.32923 13.7928 9.34326 13.7843C9.35729 13.7758 9.36876 13.7637 9.37644 13.7493C9.38413 13.7348 9.38774 13.7185 9.3869 13.7021C9.38606 13.6858 9.38079 13.6699 9.37166 13.6563C9.15623 13.3378 8.57206 13.37 8.54739 13.372C8.52347 13.3734 8.5011 13.3843 8.48522 13.4023C8.46934 13.4202 8.46123 13.4438 8.46269 13.4677C8.46415 13.4916 8.47506 13.514 8.49301 13.5298C8.51096 13.5457 8.53448 13.5538 8.5584 13.5524C8.69894 13.544 9.09125 13.5643 9.22188 13.7575C9.23017 13.7697 9.24133 13.7797 9.25438 13.7867C9.26743 13.7936 9.28198 13.7973 9.29677 13.7973Z" fill="#FF8A8A"/>
<path d="M22.0986 12.8707C22.0043 16.4922 20.0379 21.3954 15.716 21.293C11.892 21.2033 9.99303 17.5745 9.53067 14.2641C9.4919 13.9848 9.46305 13.7073 9.44432 13.4348C9.07602 8.09902 11.1975 5.36737 15.7572 5.21824C16.0132 5.20972 16.2771 5.20972 16.5489 5.21824C17.0853 5.27386 17.6177 5.36258 18.1431 5.4839C21.2932 6.51611 22.1973 9.06318 22.0986 12.8707Z" fill="#FFB8A1"/>
<g opacity="0.5">
<g opacity="0.5">
<path opacity="0.5" d="M13.5611 15.0427C13.5611 15.4613 12.7901 15.7989 11.8392 15.7989C10.8883 15.7989 10.1171 15.4604 10.1171 15.0427C10.1171 14.6251 10.888 14.2867 11.8392 14.2867C12.7904 14.2867 13.5611 14.6253 13.5611 15.0427Z" fill="#FF8A8A"/>
</g>
</g>
<g opacity="0.5">
<g opacity="0.5">
<path opacity="0.5" d="M21.6624 15.0427C21.6624 15.4613 20.8915 15.7989 19.9405 15.7989C18.9896 15.7989 18.2186 15.4604 18.2186 15.0427C18.2186 14.6251 18.9896 14.2867 19.9405 14.2867C20.8915 14.2867 21.6624 14.6253 21.6624 15.0427Z" fill="#FF8A8A"/>
</g>
</g>
<path d="M13.2356 8.4792C12.1152 8.56422 12.452 9.8621 11.3489 10.4965C10.1374 11.193 10.2878 11.6102 10.581 12.5865C11.0165 14.037 9.58446 14.382 9.58446 14.382C9.5664 14.3441 9.54812 14.3049 9.53072 14.2652C9.49195 13.9859 9.46309 13.7084 9.44437 13.4359C9.07607 8.099 10.7815 4.98891 15.7564 5.21821C16.3741 7.55513 14.7345 8.36531 13.2356 8.4792Z" fill="#3F2037"/>
<path d="M18.1832 8.09609C19.6727 8.0723 19.1524 9.61424 20.0322 10.3235C21.1195 11.2005 21.4761 10.8277 20.9984 12.2646C20.5045 13.7504 21.9235 14.3819 21.9235 14.3819C21.9418 14.344 21.9599 14.3048 21.9775 14.2652C22.016 13.9859 22.0451 13.7083 22.0638 13.4358C22.4321 8.09895 20.627 5.00296 15.7518 5.21817C15.1359 7.55509 16.6803 8.11988 18.1832 8.09609Z" fill="#3F2037"/>
<path d="M14.2722 10.3259C13.6878 10.3394 12.4135 10.4953 11.8401 11.5566C11.8401 11.5566 13.1569 10.931 14.2589 10.998C14.3083 11.001 14.3577 10.993 14.4037 10.9747C14.4496 10.9563 14.491 10.9281 14.5247 10.8919C14.5585 10.8558 14.5839 10.8126 14.599 10.7656C14.6142 10.7185 14.6188 10.6686 14.6125 10.6196C14.6021 10.5372 14.5615 10.4617 14.4987 10.4074C14.4358 10.3532 14.3551 10.3242 14.2722 10.3259Z" fill="#3F2037"/>
<path d="M17.5076 10.326C18.092 10.3394 19.3663 10.4953 19.9395 11.5566C19.9395 11.5566 18.6227 10.9311 17.5208 10.998C17.4714 11.001 17.422 10.9931 17.376 10.9748C17.33 10.9564 17.2887 10.9282 17.2549 10.892C17.2211 10.8559 17.1957 10.8127 17.1805 10.7656C17.1653 10.7185 17.1607 10.6687 17.1671 10.6196C17.1774 10.5372 17.218 10.4616 17.2809 10.4073C17.3438 10.3531 17.4246 10.3241 17.5076 10.326Z" fill="#3F2037"/>
<path d="M16.0615 16.4019C15.8274 16.395 15.5972 16.3402 15.3851 16.2409C15.3522 16.2266 15.3248 16.2021 15.3071 16.1709C15.2895 16.1398 15.2824 16.1037 15.287 16.0682L15.6324 13.4149C15.6381 13.3715 15.6607 13.332 15.6955 13.3053C15.7302 13.2785 15.7741 13.2667 15.8176 13.2723C15.861 13.2779 15.9005 13.3006 15.9272 13.3353C15.954 13.3701 15.9658 13.414 15.9602 13.4575L15.6311 15.984C15.7603 16.0482 15.9035 16.0789 16.0476 16.0734C16.1917 16.0679 16.3321 16.0263 16.456 15.9525C16.474 15.9395 16.4944 15.9302 16.516 15.9252C16.5376 15.9203 16.56 15.9197 16.5818 15.9235C16.6037 15.9274 16.6245 15.9356 16.6431 15.9477C16.6617 15.9598 16.6777 15.9755 16.6901 15.9939C16.7025 16.0123 16.711 16.033 16.7153 16.0547C16.7195 16.0765 16.7193 16.0989 16.7147 16.1206C16.7101 16.1423 16.7011 16.1628 16.6884 16.181C16.6757 16.1992 16.6594 16.2146 16.6406 16.2263C16.47 16.3426 16.268 16.4039 16.0615 16.4019Z" fill="#FF8A8A"/>
<path d="M15.7337 18.1557C15.5972 18.1557 15.4608 18.1478 15.3253 18.1322C14.8703 18.0819 14.4281 17.9498 14.0201 17.7421C13.9819 17.7207 13.9537 17.685 13.9417 17.6429C13.9297 17.6007 13.935 17.5555 13.9564 17.5173C13.9777 17.479 14.0134 17.4508 14.0556 17.4388C14.0977 17.4269 14.1429 17.4321 14.1812 17.4535C14.2607 17.4976 16.1502 18.5183 17.786 17.005C17.8183 16.9766 17.8605 16.962 17.9035 16.9642C17.9465 16.9664 17.9869 16.9853 18.0162 17.0169C18.0454 17.0485 18.0612 17.0902 18.0601 17.1333C18.059 17.1763 18.0412 17.2172 18.0105 17.2473C17.3975 17.833 16.5815 18.1586 15.7337 18.1557Z" fill="#FF8A8A"/>
<path d="M16.0216 19.1247C15.78 19.1242 15.5397 19.0903 15.3074 19.0241C15.2662 19.0106 15.2319 18.9814 15.212 18.9428C15.1921 18.9042 15.1882 18.8594 15.2011 18.8179C15.214 18.7765 15.2427 18.7418 15.281 18.7213C15.3193 18.7009 15.3641 18.6963 15.4057 18.7086C15.4149 18.7115 16.1711 18.9393 16.7035 18.6381C16.7224 18.6253 16.7438 18.6164 16.7662 18.6122C16.7887 18.608 16.8117 18.6085 16.834 18.6136C16.8563 18.6188 16.8772 18.6285 16.8955 18.6422C16.9138 18.6558 16.9291 18.6732 16.9404 18.693C16.9517 18.7129 16.9587 18.7349 16.961 18.7576C16.9634 18.7803 16.961 18.8033 16.954 18.825C16.947 18.8468 16.9356 18.8669 16.9205 18.884C16.9054 18.9011 16.8868 18.9149 16.8661 18.9245C16.6064 19.0626 16.3156 19.1315 16.0216 19.1247Z" fill="#FF8A8A"/>
<path d="M13.7942 12.8649C13.8021 13.3262 13.6323 13.702 13.4145 13.7068C13.1966 13.7117 13.0133 13.3398 13.0054 12.8786C12.9975 12.4173 13.1675 12.0402 13.3852 12.0365C13.6028 12.0327 13.7863 12.4037 13.7942 12.8649Z" fill="#3F2037"/>
<path d="M17.916 12.8649C17.9081 13.3262 18.0782 13.702 18.2958 13.7068C18.5134 13.7117 18.6969 13.3398 18.7049 12.8786C18.7128 12.4173 18.543 12.0402 18.3251 12.0365C18.1072 12.0327 17.9251 12.4037 17.916 12.8649Z" fill="#3F2037"/>
</svg>
