<svg width="32" height="29" viewBox="0 0 32 29" fill="none" xmlns="http://www.w3.org/2000/svg">
<path d="M9.05511 28.2865C9.05511 28.2865 3.77551 29.3482 3.55237 24.9024C3.45588 22.9783 3.1964 23.2792 1.51392 21.6566C-0.168554 20.034 -0.168554 19.3732 0.192259 17.8709C0.553073 16.3686 2.06792 15.8525 1.3192 14.4643C0.332796 12.636 0.635236 9.51052 2.77853 8.29216C4.85046 7.11434 5.08374 7.1302 5.08374 5.92242C5.08374 4.34502 6.7215 1.80324 10.1005 2.06757C13.0082 2.29468 12.5555 0.880501 14.6162 0.250509C18.453 -0.922907 20.3121 2.40019 21.634 2.52046C22.9559 2.64074 25.2435 2.66298 26.4046 4.41991C27.8445 6.59889 26.5724 8.37719 28.3752 8.55738C30.1779 8.73756 31.9807 10.3 31.9205 11.9225C31.8604 13.5451 30.8989 14.9269 31.5599 15.6481C32.221 16.3693 32.4772 20.6398 29.8098 21.4572C26.1647 22.574 29.8098 27.9702 23.1059 27.8702C17.0789 27.7799 9.05511 28.2865 9.05511 28.2865Z" fill="#3F2037"/>
</svg>
