<svg width="104" height="44" viewBox="0 0 104 44" fill="none" xmlns="http://www.w3.org/2000/svg">
<circle cx="22" cy="22" r="22" fill="#1A3848"/>
<path d="M26.5 13H17.5C15.016 13 13 15.008 13 17.4842V22.8689V23.7694C13 26.2456 15.016 28.2536 17.5 28.2536H18.85C19.093 28.2536 19.417 28.4157 19.57 28.6138L20.92 30.4057C21.514 31.1981 22.486 31.1981 23.08 30.4057L24.43 28.6138C24.601 28.3887 24.871 28.2536 25.15 28.2536H26.5C28.984 28.2536 31 26.2456 31 23.7694V17.4842C31 15.008 28.984 13 26.5 13ZM18.4 22.0045C17.896 22.0045 17.5 21.5993 17.5 21.1041C17.5 20.6088 17.905 20.2036 18.4 20.2036C18.895 20.2036 19.3 20.6088 19.3 21.1041C19.3 21.5993 18.904 22.0045 18.4 22.0045ZM22 22.0045C21.496 22.0045 21.1 21.5993 21.1 21.1041C21.1 20.6088 21.505 20.2036 22 20.2036C22.495 20.2036 22.9 20.6088 22.9 21.1041C22.9 21.5993 22.504 22.0045 22 22.0045ZM25.6 22.0045C25.096 22.0045 24.7 21.5993 24.7 21.1041C24.7 20.6088 25.105 20.2036 25.6 20.2036C26.095 20.2036 26.5 20.6088 26.5 21.1041C26.5 21.5993 26.104 22.0045 25.6 22.0045Z" fill="#23AA49"/>
<circle cx="82" cy="22" r="22" fill="#1A3848"/>
<path d="M81.1572 24.6725L79.4897 26.3399C79.1382 26.6915 78.5793 26.6915 78.2188 26.349C78.1197 26.2498 78.0205 26.1597 77.9214 26.0605C76.993 25.1231 76.1547 24.1407 75.4066 23.1131C74.6675 22.0856 74.0726 21.058 73.64 20.0395C73.2163 19.012 73 18.0295 73 17.0921C73 16.4792 73.1082 15.8933 73.3245 15.3525C73.5408 14.8027 73.8833 14.2979 74.361 13.8473C74.9379 13.2794 75.5688 13 76.2358 13C76.4882 13 76.7406 13.0541 76.9659 13.1622C77.2003 13.2704 77.4076 13.4326 77.5698 13.667L79.661 16.6144C79.8232 16.8397 79.9404 17.0471 80.0215 17.2453C80.1026 17.4346 80.1477 17.6239 80.1477 17.7952C80.1477 18.0115 80.0846 18.2278 79.9584 18.4351C79.8412 18.6424 79.67 18.8588 79.4536 19.0751L78.7686 19.7871C78.6695 19.8863 78.6244 20.0035 78.6244 20.1477C78.6244 20.2198 78.6334 20.2829 78.6515 20.355C78.6785 20.4271 78.7055 20.4812 78.7236 20.5353C78.8858 20.8327 79.1652 21.2203 79.5618 21.689C79.9674 22.1577 80.4001 22.6354 80.8688 23.1131C80.9589 23.2033 81.058 23.2934 81.1482 23.3835C81.5087 23.7351 81.5177 24.3119 81.1572 24.6725Z" fill="#23AA49"/>
<path d="M91 27.7191C91 27.9715 90.9549 28.2328 90.8648 28.4852C90.8378 28.5573 90.8107 28.6294 90.7747 28.7015C90.6214 29.026 90.4232 29.3325 90.1618 29.6209C89.7201 30.1076 89.2334 30.4592 88.6835 30.6845C88.6745 30.6845 88.6655 30.6935 88.6565 30.6935C88.1247 30.9098 87.5479 31.027 86.9259 31.027C86.0065 31.027 85.0241 30.8107 83.9875 30.369C82.951 29.9274 81.9144 29.3325 80.8869 28.5844C80.5354 28.323 80.1838 28.0616 79.8503 27.7822L82.7977 24.8348C83.0501 25.024 83.2755 25.1683 83.4647 25.2674C83.5098 25.2854 83.5639 25.3125 83.627 25.3395C83.6991 25.3666 83.7712 25.3756 83.8523 25.3756C84.0056 25.3756 84.1227 25.3215 84.2219 25.2223L84.9069 24.5463C85.1322 24.321 85.3486 24.1497 85.5559 24.0416C85.7632 23.9154 85.9705 23.8523 86.1958 23.8523C86.3671 23.8523 86.5474 23.8883 86.7457 23.9695C86.9439 24.0506 87.1513 24.1678 87.3766 24.321L90.3601 26.4392C90.5944 26.6014 90.7566 26.7907 90.8558 27.016C90.9459 27.2414 91 27.4667 91 27.7191Z" fill="#23AA49"/>
</svg>
