<svg width="21" height="20" viewBox="0 0 21 20" fill="none" xmlns="http://www.w3.org/2000/svg">
<path d="M18.0521 4.8183L12.2914 0.787832C10.7212 -0.312296 8.31096 -0.252289 6.80079 0.917847L1.79021 4.8283C0.790092 5.60839 0 7.20858 0 8.46872V15.3695C0 17.9198 2.07024 20.0001 4.62054 20.0001H15.4018C17.9521 20.0001 20.0223 17.9298 20.0223 15.3795V8.59874C20.0223 7.24858 19.1522 5.58839 18.0521 4.8183ZM10.7612 15.9996C10.7612 16.4096 10.4212 16.7497 10.0112 16.7497C9.60111 16.7497 9.26107 16.4096 9.26107 15.9996V12.9992C9.26107 12.5892 9.60111 12.2492 10.0112 12.2492C10.4212 12.2492 10.7612 12.5892 10.7612 12.9992V15.9996Z" fill="white"/>
</svg>
