<svg width="35" height="34" viewBox="0 0 35 34" fill="none" xmlns="http://www.w3.org/2000/svg">
<path d="M24.6643 9.8394C23.3743 9.83931 22.0909 10.0252 20.8539 10.3912C22.2349 12.9356 22.7567 15.8581 22.3413 18.7231C21.9259 21.5882 20.5956 24.2422 18.5488 26.2895L11.2398 33.5984H21.5769C23.3396 33.5985 25.0851 33.2513 26.7137 32.5768C28.3422 31.9022 29.822 30.9135 31.0684 29.6671C32.3149 28.4207 33.3036 26.9409 33.9782 25.3124C34.6528 23.6838 35 21.9383 35 20.1756V9.8394H24.6643Z" fill="#009959"/>
<path d="M3.93114 7.30729L11.2384 -1.7447e-05L18.5457 7.30728C21.0626 9.82417 22.4766 13.2378 22.4766 16.7972C22.4766 20.3566 21.0626 23.7703 18.5457 26.2872L11.2382 33.5947L3.93094 26.2873C1.414 23.7704 2.33016e-06 20.3567 2.33016e-06 16.7972C2.49969e-06 13.2377 1.414 9.82403 3.93094 7.30709L3.93114 7.30729Z" fill="#6EBD6A"/>
<path d="M17.0656 18.778L14.0119 19.9966C13.0996 20.3595 12.3093 20.9744 11.7332 21.7695V19.3281C11.7303 18.4875 11.981 17.6657 12.4524 16.9698C12.9238 16.2738 13.594 15.7362 14.3757 15.4271L17.4291 14.2085C17.5503 14.16 17.6473 14.0654 17.6987 13.9454C17.7501 13.8255 17.7518 13.69 17.7033 13.5688C17.6549 13.4476 17.5603 13.3506 17.4403 13.2992C17.3203 13.2478 17.1849 13.2461 17.0637 13.2946L14.0119 14.5118C13.0995 14.8747 12.3092 15.4896 11.7332 16.2848V13.8419C11.7303 13.0014 11.9809 12.1794 12.4523 11.4835C12.9237 10.7876 13.594 10.25 14.3757 9.94092C14.4969 9.89246 14.5938 9.79784 14.6453 9.67788C14.6967 9.55791 14.6984 9.42244 14.6499 9.30125C14.6014 9.18006 14.5068 9.08308 14.3869 9.03165C14.2669 8.98023 14.1314 8.97856 14.0102 9.02702C13.0978 9.38988 12.3074 10.0048 11.7313 10.8V5.29273C11.7313 5.22813 11.7185 5.16416 11.6938 5.10447C11.6691 5.04478 11.6329 4.99055 11.5872 4.94487C11.5415 4.89919 11.4873 4.86295 11.4276 4.83823C11.3679 4.81351 11.3039 4.80078 11.2393 4.80078C11.1747 4.80078 11.1107 4.81351 11.0511 4.83823C10.9914 4.86295 10.9371 4.89919 10.8915 4.94487C10.8458 4.99055 10.8095 5.04478 10.7848 5.10447C10.7601 5.16416 10.7474 5.22813 10.7474 5.29273V10.8C10.1715 10.0047 9.38113 9.38975 8.46867 9.02702C8.34748 8.97856 8.21201 8.98023 8.09205 9.03165C7.97208 9.08308 7.87746 9.18006 7.829 9.30125C7.78054 9.42244 7.78221 9.55791 7.83364 9.67788C7.88506 9.79784 7.98204 9.89246 8.10323 9.94092C8.88489 10.25 9.55519 10.7876 10.0266 11.4835C10.498 12.1795 10.7486 13.0014 10.7457 13.8419V16.2848C10.1698 15.4895 9.37944 14.8745 8.46699 14.5118L5.4172 13.2932C5.29601 13.2447 5.16053 13.2464 5.04057 13.2978C4.92061 13.3492 4.82599 13.4462 4.77753 13.5674C4.72907 13.6886 4.73074 13.8241 4.78216 13.944C4.83359 14.064 4.93057 14.1586 5.05176 14.2071L8.10604 15.4257C8.88806 15.7348 9.55867 16.2725 10.0302 16.9687C10.5018 17.665 10.7524 18.4872 10.7493 19.3281V21.771C10.1733 20.9758 9.383 20.3609 8.47064 19.998L5.4172 18.778C5.3572 18.754 5.29305 18.742 5.22843 18.7428C5.16381 18.7436 5.09997 18.7571 5.04057 18.7826C4.98117 18.8081 4.92737 18.845 4.88224 18.8912C4.83711 18.9375 4.80153 18.9922 4.77753 19.0522C4.75354 19.1122 4.7416 19.1763 4.74239 19.241C4.74318 19.3056 4.7567 19.3694 4.78216 19.4288C4.80763 19.4882 4.84454 19.542 4.8908 19.5871C4.93706 19.6323 4.99175 19.6679 5.05176 19.6918L8.10604 20.9105C8.88768 21.2196 9.55795 21.7572 10.0294 22.4531C10.5008 23.149 10.7514 23.9709 10.7485 24.8115V27.7842C10.7485 27.9147 10.8003 28.0398 10.8926 28.1321C10.9848 28.2243 11.11 28.2762 11.2404 28.2762C11.3709 28.2762 11.496 28.2243 11.5883 28.1321C11.6806 28.0398 11.7324 27.9147 11.7324 27.7842V24.8115C11.7295 23.9709 11.9801 23.149 12.4515 22.4531C12.9229 21.7572 13.5932 21.2196 14.3748 20.9105L17.4283 19.6918C17.4883 19.6679 17.543 19.6323 17.5892 19.5871C17.6355 19.542 17.6724 19.4882 17.6979 19.4288C17.7233 19.3694 17.7368 19.3056 17.7376 19.241C17.7384 19.1763 17.7265 19.1122 17.7025 19.0522C17.6785 18.9922 17.6429 18.9375 17.5978 18.8912C17.5527 18.845 17.4989 18.8081 17.4395 18.7826C17.3801 18.7571 17.3162 18.7436 17.2516 18.7428C17.187 18.742 17.1228 18.754 17.0628 18.778H17.0656Z" fill="#009959"/>
<path d="M31.6042 13.2353C31.5119 13.1431 31.3868 13.0913 31.2563 13.0913C31.1259 13.0913 31.0007 13.1431 30.9084 13.2353L27.0142 17.1298C27.1692 16.1601 27.0451 15.1663 26.6566 14.2644C26.6051 14.1445 26.5081 14.0499 26.3869 14.0015C26.2657 13.9531 26.1303 13.9549 26.0104 14.0064C25.8904 14.0578 25.7959 14.1548 25.7475 14.276C25.6991 14.3972 25.7008 14.5327 25.7523 14.6526C26.0867 15.424 26.1808 16.2782 26.0222 17.1039C25.8635 17.9295 25.4596 18.6881 24.8631 19.2806L23.2139 20.9304C23.1682 20.9761 23.132 21.0304 23.1073 21.0901C23.0827 21.1498 23.07 21.2138 23.07 21.2784C23.0701 21.343 23.0829 21.407 23.1076 21.4667C23.1324 21.5263 23.1687 21.5805 23.2144 21.6262C23.2601 21.6718 23.3144 21.708 23.3741 21.7327C23.4338 21.7574 23.4978 21.77 23.5624 21.77C23.627 21.7699 23.691 21.7572 23.7506 21.7324C23.8103 21.7076 23.8645 21.6713 23.9102 21.6256L25.5609 19.9746C26.1534 19.379 26.9117 18.9757 27.7368 18.8174C28.5619 18.6591 29.4156 18.7531 30.1866 19.0872C30.246 19.113 30.3099 19.1268 30.3746 19.1278C30.4394 19.1288 30.5037 19.117 30.5639 19.0931C30.6241 19.0692 30.679 19.0337 30.7254 18.9885C30.7718 18.9434 30.8089 18.8895 30.8344 18.83C30.86 18.7705 30.8735 18.7065 30.8743 18.6418C30.8751 18.577 30.8631 18.5127 30.8389 18.4526C30.8148 18.3925 30.7791 18.3378 30.7337 18.2915C30.6884 18.2453 30.6344 18.2084 30.5748 18.1831C29.6731 17.7944 28.6795 17.6704 27.71 17.8255L31.6042 13.9307C31.6963 13.8385 31.7481 13.7134 31.7481 13.583C31.7481 13.4526 31.6963 13.3276 31.6042 13.2353Z" fill="#6EBD6A"/>
</svg>
