<svg width="2" height="3" viewBox="0 0 2 3" fill="none" xmlns="http://www.w3.org/2000/svg">
<path d="M0.121062 2.99966C0.115472 3.0001 0.109854 3.0001 0.104263 2.99966C0.0725393 2.99527 0.0438561 2.97847 0.0245169 2.95294C0.0051777 2.92741 -0.00323676 2.89525 0.00112712 2.86352C0.188222 1.74834 0.774777 0.739367 1.65128 0.0249648C1.6768 0.00542699 1.70903 -0.00317403 1.74089 0.00105346C1.77275 0.00528096 1.80162 0.0219929 1.82116 0.0475093C1.8407 0.0730257 1.8493 0.105258 1.84507 0.137116C1.84084 0.168974 1.82413 0.197846 1.79862 0.217384C0.977903 0.897317 0.425708 1.84693 0.240699 2.89653C0.236514 2.92524 0.222111 2.95148 0.200134 2.97042C0.178156 2.98937 0.150078 2.99975 0.121062 2.99966Z" fill="#FF8A8A"/>
</svg>
