<svg width="20" height="9" viewBox="0 0 20 9" fill="none" xmlns="http://www.w3.org/2000/svg">
<path d="M17.24 3.5825H16.84L13.46 0.2025C13.19 -0.0675 12.75 -0.0675 12.47 0.2025C12.2 0.4725 12.2 0.9125 12.47 1.1925L14.86 3.5825H5.14L7.53 1.1925C7.8 0.9225 7.8 0.4825 7.53 0.2025C7.26 -0.0675 6.82 -0.0675 6.54 0.2025L3.17 3.5825H2.77C1.87 3.5825 0 3.5825 0 6.1425C0 7.1125 0.2 7.7525 0.62 8.1725C0.86 8.4225 1.15 8.5525 1.46 8.6225C1.75 8.6925 2.06 8.7025 2.36 8.7025H17.64C17.95 8.7025 18.24 8.6825 18.52 8.6225C19.36 8.4225 20 7.8225 20 6.1425C20 3.5825 18.13 3.5825 17.24 3.5825Z" fill="white"/>
</svg>
