<svg width="6" height="6" viewBox="0 0 6 6" fill="none" xmlns="http://www.w3.org/2000/svg">
<path d="M1.82696 0.572073C1.24828 0.851948 0.788746 1.32952 0.531358 1.91855C0.27397 2.50758 0.235696 3.16924 0.423442 3.78402C0.611188 4.3988 1.01258 4.92618 1.55513 5.27092C2.09768 5.61566 2.74562 5.75503 3.38193 5.66386C4.01824 5.57269 4.60098 5.25699 5.0249 4.77378C5.44883 4.29057 5.68598 3.6717 5.69355 3.02893C5.70112 2.38617 5.4786 1.76188 5.06618 1.26882C4.65375 0.775759 4.07861 0.446425 3.44462 0.340297C3.32231 0.319488 3.19867 0.307427 3.07464 0.304203C3.08353 0.200567 3.10506 0.0984067 3.13876 0C3.34304 0.00911043 3.54582 0.0394352 3.74383 0.0904796C4.43483 0.267335 5.04021 0.684601 5.45137 1.26744C5.86254 1.85027 6.05259 2.56054 5.98743 3.27082C5.92227 3.98111 5.60618 4.64494 5.09584 5.14325C4.5855 5.64155 3.91431 5.94172 3.20267 5.98991C2.49103 6.0381 1.78551 5.83115 1.21265 5.4062C0.63979 4.98124 0.23708 4.36608 0.0767638 3.67106C-0.0835524 2.97604 0.00900836 2.24665 0.337847 1.6137C0.666685 0.980757 1.21028 0.485684 1.87113 0.217289L1.82696 0.572073Z" fill="#FFF7F1"/>
</svg>
