<svg width="2" height="4" viewBox="0 0 2 4" fill="none" xmlns="http://www.w3.org/2000/svg">
<path d="M0.99122 3.99993C0.692116 3.99114 0.397985 3.92113 0.126996 3.79422C0.0849992 3.77603 0.0500615 3.74466 0.0274691 3.70485C0.00487669 3.66505 -0.00414486 3.61897 0.00176507 3.57359L0.443028 0.183967C0.45023 0.128439 0.479192 0.0780467 0.523549 0.0438748C0.567907 0.00970284 0.624022 -0.00544763 0.679551 0.00175469C0.73508 0.00895701 0.785476 0.037923 0.819648 0.0822805C0.85382 0.126638 0.868966 0.182754 0.861764 0.238282L0.441336 3.46609C0.606363 3.54802 0.789298 3.58726 0.973408 3.58023C1.15752 3.5732 1.33693 3.52012 1.49523 3.42585C1.51816 3.40921 1.54421 3.39735 1.57182 3.39099C1.59942 3.38462 1.62803 3.38388 1.65593 3.38881C1.68383 3.39374 1.71046 3.40424 1.73422 3.41968C1.75797 3.43512 1.77837 3.45518 1.79421 3.47867C1.81005 3.50216 1.821 3.5286 1.8264 3.55642C1.8318 3.58423 1.83155 3.61285 1.82565 3.64056C1.81976 3.66828 1.80834 3.69452 1.79209 3.71773C1.77584 3.74093 1.75508 3.76063 1.73105 3.77564C1.51312 3.92418 1.25495 4.00245 0.99122 3.99993Z" fill="#FF8A8A"/>
</svg>
