<svg width="21" height="20" viewBox="0 0 21 20" fill="none" xmlns="http://www.w3.org/2000/svg">
<path d="M18.052 4.81828L12.2914 0.787829C10.7212 -0.312295 8.31094 -0.252288 6.80077 0.917844L1.7902 4.82829C0.790089 5.60837 0 7.20855 0 8.4687V15.3695C0 17.9198 2.07023 20 4.62052 20H15.4017C17.952 20 20.0223 17.9298 20.0223 15.3795V8.59871C20.0223 7.24856 19.1522 5.58837 18.052 4.81828ZM10.7612 15.9995C10.7612 16.4096 10.4212 16.7496 10.0111 16.7496C9.60108 16.7496 9.26105 16.4096 9.26105 15.9995V12.9992C9.26105 12.5892 9.60108 12.2491 10.0111 12.2491C10.4212 12.2491 10.7612 12.5892 10.7612 12.9992V15.9995Z" fill="#06161C"/>
</svg>
