<svg width="17" height="10" viewBox="0 0 17 10" fill="none" xmlns="http://www.w3.org/2000/svg">
<path d="M15.1835 0H1.00346C0.383456 0 -0.0865439 0.55 0.0134561 1.16L0.853456 6.3C1.13346 8.02 1.88346 10 5.21346 10H10.8235C14.1935 10 14.7935 8.31 15.1535 6.42L16.1635 1.19C16.2835 0.57 15.8135 0 15.1835 0ZM6.74346 6.45C6.74346 6.84 6.43346 7.15 6.05346 7.15C5.66346 7.15 5.35346 6.84 5.35346 6.45V3.15C5.35346 2.77 5.66346 2.45 6.05346 2.45C6.43346 2.45 6.74346 2.77 6.74346 3.15V6.45ZM11.0235 6.45C11.0235 6.84 10.7135 7.15 10.3235 7.15C9.94346 7.15 9.62346 6.84 9.62346 6.45V3.15C9.62346 2.77 9.94346 2.45 10.3235 2.45C10.7135 2.45 11.0235 2.77 11.0235 3.15V6.45Z" fill="white"/>
</svg>
