<svg width="39" height="39" viewBox="0 0 39 39" fill="none" xmlns="http://www.w3.org/2000/svg">
<ellipse cx="19.5" cy="19.4599" rx="19.5" ry="19.4599" fill="#DEDEE8"/>
<mask id="mask0_59_1954" style="mask-type:alpha" maskUnits="userSpaceOnUse" x="0" y="0" width="41" height="41">
<path d="M20.2514 40.5028C31.4359 40.5028 40.5028 31.4359 40.5028 20.2514C40.5028 9.06686 31.4359 0 20.2514 0C9.06686 0 0 9.06686 0 20.2514C0 31.4359 9.06686 40.5028 20.2514 40.5028Z" fill="#F26060"/>
</mask>
<g mask="url(#mask0_59_1954)">
</g>
<mask id="mask1_59_1954" style="mask-type:alpha" maskUnits="userSpaceOnUse" x="0" y="0" width="41" height="41">
<path d="M20.2514 40.5028C31.4359 40.5028 40.5028 31.4359 40.5028 20.2514C40.5028 9.06686 31.4359 0 20.2514 0C9.06686 0 0 9.06686 0 20.2514C0 31.4359 9.06686 40.5028 20.2514 40.5028Z" fill="#F26060"/>
</mask>
<g mask="url(#mask1_59_1954)">
</g>
<mask id="mask2_59_1954" style="mask-type:alpha" maskUnits="userSpaceOnUse" x="0" y="0" width="39" height="39">
<path d="M19.5 38.9198C30.2696 38.9198 39.0001 30.2073 39.0001 19.4599C39.0001 8.7125 30.2696 0 19.5 0C8.73047 0 0 8.7125 0 19.4599C0 30.2073 8.73047 38.9198 19.5 38.9198Z" fill="#F26060"/>
</mask>
<g mask="url(#mask2_59_1954)">
<path d="M10.9478 35.2601C10.9478 35.2601 8.45498 33.1497 9.92972 29.7045C11.4044 26.2592 15.7128 25.7504 19.8608 25.7492C26.189 25.7475 33.748 27.939 28.7051 35.2591C28.7051 35.2601 22.4266 39.4383 10.9478 35.2601Z" fill="#FF9A40"/>
<path d="M17.1902 31.135C17.1502 31.1349 17.1112 31.1221 17.0789 31.0984C17.0465 31.0747 17.0225 31.0412 17.0102 31.0029C16.5475 29.5615 15.2713 28.6549 15.2578 28.6457C15.2177 28.6165 15.1906 28.5726 15.1823 28.5235C15.174 28.4743 15.1852 28.4239 15.2134 28.3829C15.2416 28.342 15.2847 28.3138 15.3333 28.3044C15.382 28.2951 15.4323 28.3052 15.4736 28.3328C16.3432 28.976 17.0034 29.8646 17.3705 30.8859C17.3781 30.9097 17.381 30.9348 17.3789 30.9598C17.3769 30.9847 17.37 31.009 17.3586 31.0313C17.3473 31.0536 17.3316 31.0734 17.3127 31.0896C17.2937 31.1057 17.2717 31.118 17.248 31.1257C17.2293 31.1317 17.2098 31.1349 17.1902 31.135Z" fill="#E96D17"/>
<path d="M19.8756 33.6966C19.8439 33.6966 19.8126 33.6885 19.7848 33.6732C19.7569 33.6579 19.7333 33.6357 19.7162 33.6088C18.0654 31.0212 13.1524 30.2721 13.1034 30.2649C13.0538 30.2576 13.009 30.2308 12.979 30.1903C12.9489 30.1498 12.9361 30.0989 12.9434 30.0489C12.9506 29.9989 12.9773 29.9539 13.0176 29.9237C13.0578 29.8935 13.1084 29.8806 13.1581 29.8879C13.3667 29.9187 18.29 30.6696 20.0343 33.4031C20.0526 33.4318 20.0629 33.4651 20.0641 33.4992C20.0653 33.5334 20.0573 33.5672 20.041 33.5972C20.0248 33.6272 20.0008 33.6522 19.9716 33.6697C19.9424 33.6872 19.9091 33.6965 19.8751 33.6966H19.8756Z" fill="#E96D17"/>
<path d="M36.8996 41.8393H3.30618C3.30618 41.8393 3.64358 37.6226 5.67168 36.8062C6.49119 36.4763 8.36919 35.5361 10.318 34.5319C13.0407 33.1291 15.9005 31.6025 16.1917 31.4463L16.2162 31.433L16.4728 31.4914C16.794 31.5639 17.1164 31.6259 17.4399 31.6774C17.7597 31.7293 18.0804 31.7712 18.4019 31.8031C20.1795 31.9789 21.9737 31.8545 23.7105 31.435L23.7186 31.433C23.7186 31.433 25.9159 32.5725 28.3661 33.8135C28.6795 33.9722 28.9976 34.1338 29.3154 34.2932C31.4811 35.3839 33.6492 36.4502 34.5336 36.8062C36.5615 37.6226 36.8996 41.8393 36.8996 41.8393Z" fill="#FF9A40"/>
<path d="M21.662 36.4718C20.1183 36.4685 18.5935 36.13 17.1917 35.4794C16.1849 35.0291 15.2575 34.417 14.446 33.6671C14.4295 33.6506 14.4165 33.631 14.4076 33.6094C14.3987 33.5879 14.394 33.5647 14.394 33.5413C14.3939 33.4941 14.4125 33.4489 14.4456 33.4154C14.4787 33.382 14.5237 33.3632 14.5706 33.3631C14.6175 33.3631 14.6625 33.3817 14.6957 33.4151C15.4832 34.1357 16.3798 34.7254 17.3519 35.1618C19.5324 36.1734 21.9953 36.388 24.3161 35.7684C24.3616 35.7565 24.4099 35.7633 24.4504 35.7872C24.4909 35.8112 24.5203 35.8503 24.5321 35.896C24.5439 35.9418 24.5372 35.9904 24.5134 36.0311C24.4896 36.0719 24.4507 36.1014 24.4053 36.1133C23.5098 36.35 22.5878 36.4705 21.662 36.4718Z" fill="#E96D17"/>
<path d="M20.7913 38.1864C20.1333 38.1848 19.4772 38.1148 18.8335 37.9777C18.8108 37.9729 18.7892 37.9636 18.77 37.9505C18.7508 37.9373 18.7344 37.9205 18.7216 37.9009C18.7089 37.8814 18.7001 37.8595 18.6958 37.8365C18.6915 37.8135 18.6917 37.79 18.6965 37.7671C18.7012 37.7442 18.7104 37.7225 18.7235 37.7032C18.7366 37.6839 18.7533 37.6673 18.7727 37.6545C18.7922 37.6417 18.8139 37.6329 18.8367 37.6285C18.8596 37.6242 18.883 37.6244 18.9057 37.6292C22.3987 38.3631 24.5826 36.8219 24.6042 36.8063C24.623 36.7921 24.6444 36.7818 24.6673 36.776C24.6901 36.7703 24.7138 36.7691 24.7371 36.7727C24.7603 36.7763 24.7827 36.7845 24.8027 36.7968C24.8228 36.8092 24.8402 36.8255 24.854 36.8447C24.8677 36.8639 24.8775 36.8857 24.8828 36.9088C24.888 36.9319 24.8887 36.9558 24.8846 36.9791C24.8806 37.0024 24.872 37.0247 24.8593 37.0446C24.8466 37.0646 24.83 37.0817 24.8107 37.0952C24.7352 37.1514 23.2657 38.1864 20.7913 38.1864Z" fill="#E96D17"/>
<path d="M23.8896 32.2941C23.8896 32.2941 23.2307 34.3779 20.2037 34.3779C16.6727 34.3779 15.8414 32.4836 15.8414 32.4836C16.118 31.7504 16.3386 30.9971 16.5013 30.2302C16.7041 29.3068 16.7988 28.3627 16.7836 27.4172L22.9868 27.1708C23.0444 27.6993 23.1377 28.3216 23.243 28.9476C23.5245 30.6092 23.8896 32.2941 23.8896 32.2941Z" fill="#FFB8A1"/>
<path d="M23.2455 28.9476C22.2842 29.6204 20.1826 30.6219 16.502 30.2315C16.7048 29.3079 16.7996 28.3635 16.7844 27.4177L22.9893 27.1713C23.0476 27.6984 23.1409 28.3209 23.2455 28.9476Z" fill="#3F2037"/>
<path d="M14.4178 19.2775C14.4178 19.2775 12.4976 16.6475 11.0039 18.204C9.51019 19.7605 12.3909 25.1816 15.0046 24.0007L14.4178 19.2775Z" fill="#FFB8A1"/>
<path d="M13.5016 22.3849C13.4696 22.3849 13.4387 22.3732 13.4146 22.352C13.3905 22.3309 13.3747 22.3017 13.3703 22.2698C13.1178 20.4425 11.6745 19.3209 11.6598 19.3098C11.6318 19.2884 11.6134 19.2567 11.6087 19.2217C11.6039 19.1866 11.6132 19.1511 11.6345 19.1229C11.6558 19.0947 11.6873 19.0762 11.7221 19.0715C11.757 19.0667 11.7923 19.076 11.8203 19.0974C12.7828 19.8865 13.427 21.0011 13.6326 22.2331C13.6374 22.2682 13.6282 22.3037 13.607 22.3319C13.5858 22.3602 13.5543 22.3788 13.5195 22.3837C13.5135 22.3845 13.5076 22.385 13.5016 22.3849Z" fill="#FF8A8A"/>
<path d="M13.0996 21.0723C13.0779 21.0723 13.0565 21.0669 13.0373 21.0567C13.0181 21.0464 13.0018 21.0315 12.9897 21.0134C12.7969 20.7268 12.2204 20.6974 12.0154 20.7103C11.9976 20.7121 11.9796 20.7103 11.9625 20.705C11.9455 20.6997 11.9296 20.6909 11.916 20.6793C11.9023 20.6677 11.8912 20.6534 11.8831 20.6373C11.8751 20.6213 11.8704 20.6037 11.8693 20.5858C11.8682 20.5678 11.8707 20.5498 11.8766 20.5329C11.8826 20.5159 11.8919 20.5003 11.904 20.4871C11.916 20.4738 11.9307 20.4632 11.947 20.4557C11.9632 20.4483 11.9808 20.4443 11.9987 20.4438C12.0352 20.4414 12.8929 20.3933 13.2093 20.864C13.2229 20.8841 13.2307 20.9075 13.232 20.9317C13.2334 20.9559 13.2281 20.98 13.2168 21.0014C13.2055 21.0228 13.1887 21.0407 13.168 21.0532C13.1474 21.0657 13.1237 21.0723 13.0996 21.0723Z" fill="#FF8A8A"/>
<path d="M26.1119 19.2775C26.1119 19.2775 28.0323 16.6475 29.5258 18.204C31.0193 19.7605 28.1391 25.1816 25.5251 24.0007L26.1119 19.2775Z" fill="#FFB8A1"/>
<path d="M27.0277 22.3849C27.0216 22.3854 27.0154 22.3854 27.0093 22.3849C26.9921 22.3825 26.9754 22.3767 26.9604 22.3678C26.9454 22.359 26.9322 22.3472 26.9217 22.3332C26.9112 22.3192 26.9035 22.3033 26.8992 22.2863C26.8948 22.2694 26.8938 22.2517 26.8962 22.2343C27.1017 21.0023 27.7459 19.8876 28.7086 19.0987C28.7223 19.0872 28.7383 19.0787 28.7554 19.0737C28.7725 19.0686 28.7905 19.0671 28.8082 19.0691C28.826 19.0712 28.8431 19.0769 28.8586 19.0858C28.8741 19.0947 28.8877 19.1066 28.8985 19.1209C28.9093 19.1352 28.9172 19.1516 28.9215 19.169C28.9259 19.1864 28.9268 19.2045 28.9241 19.2223C28.9213 19.24 28.9151 19.257 28.9056 19.2723C28.8962 19.2876 28.8838 19.3008 28.8692 19.3111C28.8545 19.3222 27.4105 20.4476 27.1587 22.271C27.154 22.3026 27.1382 22.3315 27.1142 22.3524C27.0902 22.3733 27.0595 22.3848 27.0277 22.3849Z" fill="#FF8A8A"/>
<path d="M27.4299 21.0723C27.4058 21.0722 27.3822 21.0656 27.3616 21.0531C27.3409 21.0406 27.3241 21.0226 27.3128 21.0012C27.3015 20.9798 27.2962 20.9557 27.2976 20.9315C27.2989 20.9072 27.3067 20.8839 27.3202 20.8638C27.6364 20.3933 28.4943 20.4416 28.5308 20.4448C28.5649 20.4484 28.5963 20.4651 28.6184 20.4914C28.6406 20.5177 28.6518 20.5516 28.6496 20.586C28.6475 20.6204 28.6323 20.6526 28.6071 20.676C28.5819 20.6993 28.5487 20.7119 28.5144 20.7112C28.3082 20.6989 27.7319 20.7287 27.5399 21.0146C27.5276 21.0325 27.5112 21.0471 27.492 21.0571C27.4728 21.0672 27.4515 21.0724 27.4299 21.0723Z" fill="#FF8A8A"/>
<path d="M21.8833 11.6124C16.5131 10.2938 11.6523 15.1789 12.8636 20.605C13.7186 24.4355 15.5941 29.2661 20.2032 29.3758C25.0064 29.4896 26.9341 24.2266 27.6199 20.2339C27.9268 18.4632 27.5917 16.6405 26.6755 15.0975C25.7593 13.5545 24.323 12.3937 22.6279 11.8265C22.3852 11.7467 22.137 11.6753 21.8833 11.6124Z" fill="#FFB8A1"/>
<path d="M20.587 23.9107C20.326 23.903 20.0692 23.8416 19.8327 23.7303C19.795 23.7138 19.7637 23.6855 19.7435 23.6495C19.7232 23.6135 19.7152 23.5719 19.7205 23.531L20.1045 20.5626C20.1077 20.5378 20.1157 20.5137 20.128 20.492C20.1404 20.4702 20.1569 20.4511 20.1767 20.4358C20.1964 20.4205 20.2189 20.4093 20.243 20.4027C20.267 20.3962 20.2921 20.3945 20.3168 20.3977C20.3415 20.401 20.3654 20.4091 20.3869 20.4216C20.4085 20.4342 20.4274 20.4508 20.4426 20.4707C20.4577 20.4906 20.4689 20.5133 20.4753 20.5376C20.4817 20.5618 20.4833 20.5871 20.48 20.6119L20.1148 23.4339C20.2571 23.5046 20.4147 23.5384 20.5732 23.5321C20.7318 23.5257 20.8862 23.4795 21.0225 23.3976C21.0431 23.3835 21.0663 23.3735 21.0907 23.3684C21.1151 23.3633 21.1404 23.3631 21.1649 23.3678C21.1894 23.3726 21.2127 23.3821 21.2336 23.3959C21.2544 23.4098 21.2723 23.4276 21.2863 23.4485C21.3002 23.4693 21.3099 23.4927 21.3149 23.5173C21.3198 23.5419 21.3198 23.5673 21.315 23.5919C21.3101 23.6166 21.3005 23.64 21.2866 23.6609C21.2727 23.6818 21.2549 23.6997 21.2341 23.7136C21.0435 23.8443 20.8177 23.9131 20.587 23.9107Z" fill="#FF8A8A"/>
<path d="M20.2364 25.8667C19.5697 25.8632 18.9126 25.7064 18.3153 25.4083C18.2723 25.3832 18.2408 25.3422 18.2276 25.294C18.2144 25.2458 18.2206 25.1943 18.2448 25.1506C18.269 25.107 18.3093 25.0746 18.357 25.0606C18.4047 25.0465 18.4559 25.0519 18.4997 25.0756C18.5916 25.1266 20.6873 26.2629 22.5011 24.5746C22.5194 24.5576 22.5408 24.5444 22.5641 24.5357C22.5874 24.527 22.6122 24.5231 22.6371 24.5241C22.6619 24.525 22.6863 24.5309 22.7089 24.5414C22.7315 24.5519 22.7518 24.5667 22.7687 24.5851C22.7856 24.6034 22.7987 24.625 22.8073 24.6484C22.816 24.6719 22.8199 24.6968 22.8189 24.7218C22.818 24.7468 22.8121 24.7714 22.8017 24.7941C22.7913 24.8169 22.7766 24.8373 22.7583 24.8543C22.0799 25.508 21.1757 25.8709 20.2364 25.8667Z" fill="#FF8A8A"/>
<path d="M20.5431 26.9552C20.274 26.9546 20.0063 26.9167 19.7476 26.8425C19.6996 26.8275 19.6596 26.7939 19.6363 26.7492C19.6129 26.7045 19.6082 26.6522 19.6232 26.604C19.6381 26.5558 19.6715 26.5155 19.7159 26.492C19.7604 26.4685 19.8123 26.4638 19.8602 26.4788C19.8686 26.4815 20.7081 26.7363 21.2986 26.4004C21.3423 26.3756 21.3941 26.3692 21.4425 26.3827C21.4909 26.3962 21.5319 26.4285 21.5566 26.4725C21.5814 26.5165 21.5877 26.5686 21.5743 26.6173C21.5608 26.6659 21.5287 26.7073 21.485 26.7321C21.1952 26.8864 20.8708 26.9632 20.5431 26.9552Z" fill="#FF8A8A"/>
<path d="M16.5468 18.4941C17.0387 18.2153 17.5729 18.0202 18.128 17.9167C18.2007 17.9069 18.2704 17.8808 18.3319 17.8405C18.3934 17.8002 18.4452 17.7466 18.4835 17.6836C18.5218 17.6206 18.5457 17.5498 18.5535 17.4763C18.5612 17.4029 18.5525 17.3286 18.5282 17.259L18.5066 17.1988C18.4696 17.0943 18.3988 17.0054 18.3055 16.9463C18.2122 16.8872 18.1019 16.8614 17.9923 16.873C17.476 16.9282 16.5615 17.1101 15.9647 17.7085C15.9014 17.7725 15.8568 17.8527 15.8358 17.9404C15.8148 18.0282 15.8181 18.12 15.8454 18.206C15.867 18.2755 15.9037 18.3393 15.9527 18.3929C16.0016 18.4465 16.0618 18.4885 16.1288 18.516C16.1958 18.5436 16.268 18.5559 16.3402 18.5521C16.4125 18.5483 16.483 18.5285 16.5468 18.4941Z" fill="#3F2037"/>
<path d="M24.3794 18.4941C23.8875 18.2153 23.3533 18.0202 22.7982 17.9167C22.7255 17.9068 22.6558 17.8808 22.5943 17.8405C22.5328 17.8002 22.481 17.7466 22.4427 17.6836C22.4043 17.6206 22.3804 17.5498 22.3727 17.4763C22.365 17.4029 22.3736 17.3286 22.398 17.2589L22.4193 17.1988C22.4563 17.0943 22.5272 17.0054 22.6205 16.9463C22.7137 16.8873 22.824 16.8614 22.9337 16.873C23.4499 16.9282 24.3647 17.1101 24.9613 17.7084C25.0245 17.7724 25.0691 17.8527 25.0901 17.9404C25.1112 18.0282 25.1079 18.12 25.0806 18.206C25.0589 18.2755 25.0223 18.3393 24.9734 18.3928C24.9244 18.4464 24.8643 18.4885 24.7973 18.516C24.7303 18.5435 24.6582 18.5558 24.5859 18.552C24.5137 18.5482 24.4431 18.5284 24.3794 18.4941Z" fill="#3F2037"/>
<g opacity="0.5">
<g opacity="0.5">
<path opacity="0.5" d="M17.9338 21.9179C17.9338 22.3861 17.0766 22.7639 16.019 22.7639C14.9615 22.7639 14.1045 22.3851 14.1045 21.9179C14.1045 21.4507 14.9617 21.0721 16.019 21.0721C17.0763 21.0721 17.9338 21.4509 17.9338 21.9179Z" fill="#FF8A8A"/>
</g>
</g>
<g opacity="0.5">
<g opacity="0.5">
<path opacity="0.5" d="M26.9392 21.9179C26.9392 22.3861 26.0819 22.7639 25.0246 22.7639C23.9673 22.7639 23.1101 22.3851 23.1101 21.9179C23.1101 21.4507 23.9673 21.0721 25.0246 21.0721C26.0819 21.0721 26.9392 21.4509 26.9392 21.9179Z" fill="#FF8A8A"/>
</g>
</g>
<path d="M13.063 21.4397C13.063 21.4397 12.0543 15.8471 12.3662 14.5694C12.6781 13.2917 13.3289 13.525 13.3289 13.525C13.3289 13.525 7.88863 9.0386 10.5942 6.49555C12.553 4.65466 14.8056 8.59365 14.8056 8.59365C14.8056 8.59365 13.6911 4.72118 15.2767 4.18926C17.2534 3.52628 18.1476 8.16743 18.1476 8.16743C18.1476 8.16743 17.9845 4.70418 19.591 4.77341C21.8191 4.86826 20.5638 7.45714 22.9797 8.46751C25.3956 9.47788 29.0459 9.99082 27.7298 14.0636C27.7298 14.0636 29.5023 13.9857 27.2971 21.2537C26.7275 20.4575 26.4426 19.4906 26.4891 18.5106C26.5254 17.7587 26.5215 16.8875 26.3682 16.3521C26.3682 16.3521 24.9877 15.3817 25.0504 13.9609C25.0504 13.9609 20.1869 16.8656 15.7001 14.2767C15.7001 14.2767 15.9824 15.9501 14.5703 16.2026C14.2468 17.0488 14.0408 17.9359 13.9582 18.8388C13.8728 19.7371 13.5812 20.6032 13.1064 21.3688L13.063 21.4397Z" fill="#3F2037"/>
<path d="M27.2796 11.5093C27.2796 11.5093 28.0481 8.86947 29.2896 9.54496C30.1757 10.0272 28.1113 12.0357 28.1113 12.0357C28.1113 12.0357 29.848 11.0911 30.7047 11.7567C31.5614 12.4224 29.2879 13.209 27.9776 12.984C26.6673 12.759 27.2796 11.5093 27.2796 11.5093Z" fill="#3F2037"/>
<path d="M18.0668 19.9484C18.0756 20.4644 17.8866 20.8849 17.6443 20.8903C17.4021 20.8957 17.1986 20.4797 17.1898 19.9637C17.1809 19.4476 17.3698 19.0257 17.612 19.0216C17.8542 19.0174 18.0578 19.4324 18.0668 19.9484Z" fill="#3F2037"/>
<path d="M22.6494 19.9484C22.6403 20.4644 22.8294 20.8849 23.0716 20.8903C23.3138 20.8957 23.5174 20.4797 23.5264 19.9637C23.5355 19.4476 23.3462 19.0257 23.1039 19.0216C22.8617 19.0174 22.6582 19.4324 22.6494 19.9484Z" fill="#3F2037"/>
<path d="M15.1929 36.5379V41.8408H14.8143V36.5379C14.8143 36.4874 14.8342 36.439 14.8697 36.4032C14.9052 36.3675 14.9534 36.3474 15.0036 36.3474C15.0538 36.3474 15.102 36.3675 15.1375 36.4032C15.173 36.439 15.1929 36.4874 15.1929 36.5379Z" fill="white"/>
<path d="M25.7151 36.5379V41.8408H25.3365V36.5379C25.3373 36.4933 25.3536 36.4504 25.3826 36.4167C25.4117 36.383 25.4515 36.3606 25.4953 36.3535C25.5391 36.3463 25.5839 36.3549 25.6221 36.3777C25.6602 36.4005 25.6891 36.436 25.7039 36.4781C25.7111 36.4972 25.7149 36.5175 25.7151 36.5379Z" fill="white"/>
</g>
</svg>
