<svg width="22" height="22" viewBox="0 0 22 22" fill="none" xmlns="http://www.w3.org/2000/svg">
<path d="M13.75 4.58331C13.6293 4.58261 13.5097 4.60573 13.3981 4.65135C13.2864 4.69697 13.1848 4.76418 13.0991 4.84914L7.59914 10.3491C7.42841 10.5209 7.33258 10.7532 7.33258 10.9954C7.33258 11.2376 7.42841 11.4699 7.59914 11.6416L13.0991 17.1416C13.2745 17.2918 13.5001 17.3703 13.7308 17.3614C13.9615 17.3525 14.1803 17.2568 14.3436 17.0936C14.5068 16.9303 14.6025 16.7115 14.6114 16.4808C14.6203 16.2501 14.5418 16.0245 14.3916 15.8491L9.54247 11L14.3916 6.15081C14.5204 6.02314 14.6083 5.86017 14.6444 5.68251C14.6805 5.50485 14.6632 5.32047 14.5945 5.15269C14.5258 4.98491 14.4089 4.84127 14.2586 4.73992C14.1083 4.63857 13.9313 4.58407 13.75 4.58331Z" fill="white"/>
</svg>
