<svg width="8" height="2" viewBox="0 0 8 2" fill="none" xmlns="http://www.w3.org/2000/svg">
<path d="M4.3465 1.55327C3.65931 1.55378 2.97483 1.46704 2.30948 1.29514C1.51417 1.10227 0.758574 0.772219 0.0766386 0.319804C0.0572078 0.306596 0.0406339 0.289614 0.0279065 0.269865C0.0151791 0.250116 0.00655913 0.228006 0.00255762 0.204854C-0.00144388 0.181703 -0.000744243 0.157983 0.00461602 0.135107C0.00997629 0.112232 0.019891 0.0906705 0.0337612 0.0717067C0.0476315 0.0527429 0.0651733 0.0367657 0.0853494 0.0247268C0.105526 0.0126879 0.127921 0.004833 0.151197 0.00163215C0.174473 -0.0015687 0.198156 -5.14402e-05 0.220833 0.00609438C0.24351 0.0122402 0.264716 0.0228889 0.283191 0.0374048C0.935299 0.463832 1.65536 0.775913 2.4124 0.960226C4.19538 1.40568 6.07687 1.23111 7.74745 0.465206C7.76868 0.454728 7.79182 0.448664 7.81545 0.447382C7.83909 0.4461 7.86274 0.449625 7.88498 0.457745C7.90721 0.465866 7.92757 0.478412 7.94482 0.494626C7.96207 0.510839 7.97585 0.530384 7.98533 0.552076C7.99481 0.573767 7.99979 0.597157 7.99997 0.620829C8.00015 0.644501 7.99553 0.667961 7.98639 0.689796C7.97724 0.71163 7.96376 0.731383 7.94676 0.747858C7.92976 0.764334 7.9096 0.77719 7.88749 0.78565C6.77371 1.28599 5.56749 1.54747 4.3465 1.55327Z" fill="#0056A8"/>
</svg>
