<svg width="2" height="1" viewBox="0 0 2 1" fill="none" xmlns="http://www.w3.org/2000/svg">
<path d="M0.936457 0.582882C0.663263 0.582297 0.391458 0.543982 0.128749 0.469025C0.082089 0.453758 0.0433099 0.420741 0.0207998 0.377111C-0.0017103 0.333482 -0.0061464 0.282746 0.00845236 0.235872C0.0230511 0.188999 0.0555123 0.149755 0.0988152 0.126623C0.142118 0.103492 0.192783 0.0983303 0.23986 0.112257C0.250324 0.115496 1.10562 0.373107 1.70778 0.032535C1.72912 0.0179658 1.75326 0.00797949 1.77865 0.00320983C1.80405 -0.00155983 1.83016 -0.00100784 1.85533 0.00482549C1.8805 0.0106588 1.90419 0.021647 1.9249 0.0371007C1.94561 0.0525543 1.96288 0.0721361 1.97564 0.0946067C1.9884 0.117077 1.99635 0.141948 1.99901 0.16765C2.00166 0.193352 1.99896 0.219328 1.99107 0.243932C1.98317 0.268536 1.97026 0.291235 1.95315 0.310596C1.93604 0.329957 1.9151 0.345559 1.89165 0.356416C1.59794 0.512566 1.26901 0.590552 0.936457 0.582882Z" fill="#FF8A8A"/>
</svg>
